<svg xmlns="http://www.w3.org/2000/svg" xmlns:xlink="http://www.w3.org/1999/xlink" width="100" zoomAndPan="magnify" viewBox="0 0 1440 809.999993" height="100" preserveAspectRatio="xMidYMid meet" version="1.0"><defs><g/><clipPath id="37a6106df4"><path d="M 815 234 L 1044 234 L 1044 469 L 815 469 Z M 815 234 " clip-rule="nonzero"/></clipPath></defs><g fill="#ff00ff" fill-opacity="1"><g transform="translate(529.292908, 520.499594)"><g><path d="M 289.5625 0 L 39.875 0 C 33.226562 0 28.414062 -1.484375 25.4375 -4.453125 C 22.46875 -7.429688 20.984375 -12.242188 20.984375 -18.890625 L 20.984375 -109.109375 C 20.984375 -129.390625 22.992188 -146.085938 27.015625 -159.203125 C 31.035156 -172.316406 36.71875 -183.070312 44.0625 -191.46875 C 51.40625 -199.863281 60.144531 -206.507812 70.28125 -211.40625 C 80.425781 -216.300781 91.445312 -220.5 103.34375 -224 L 173.640625 -246.03125 C 179.234375 -247.425781 182.988281 -249.519531 184.90625 -252.3125 C 186.832031 -255.113281 187.796875 -259.3125 187.796875 -264.90625 C 187.796875 -270.15625 186.742188 -273.738281 184.640625 -275.65625 C 182.546875 -277.582031 178.878906 -278.546875 173.640625 -278.546875 L 59.796875 -278.546875 C 53.148438 -278.546875 48.34375 -280.03125 45.375 -283 C 42.40625 -285.976562 40.921875 -290.789062 40.921875 -297.4375 L 40.921875 -358.8125 C 40.921875 -365.457031 42.40625 -370.265625 45.375 -373.234375 C 48.34375 -376.210938 53.148438 -377.703125 59.796875 -377.703125 L 214.546875 -377.703125 C 244.273438 -377.703125 267.09375 -370.269531 283 -355.40625 C 298.914062 -340.539062 306.875 -318.941406 306.875 -290.609375 L 306.875 -241.3125 C 306.875 -215.082031 299.53125 -194.972656 284.84375 -180.984375 C 270.15625 -166.992188 250.222656 -156.148438 225.046875 -148.453125 L 153.703125 -125.90625 C 148.453125 -124.5 144.863281 -122.921875 142.9375 -121.171875 C 141.019531 -119.421875 140.0625 -115.75 140.0625 -110.15625 L 140.0625 -99.140625 L 289.5625 -99.140625 C 296.207031 -99.140625 301.015625 -97.65625 303.984375 -94.6875 C 306.960938 -91.71875 308.453125 -86.910156 308.453125 -80.265625 L 308.453125 -18.890625 C 308.453125 -12.242188 306.960938 -7.429688 303.984375 -4.453125 C 301.015625 -1.484375 296.207031 0 289.5625 0 Z M 289.5625 0 "/></g></g></g><g fill="#00ffff" fill-opacity="1"><g transform="translate(556.627946, 495.009291)"><g><path d="M 289.5625 0 L 39.875 0 C 33.226562 0 28.414062 -1.484375 25.4375 -4.453125 C 22.46875 -7.429688 20.984375 -12.242188 20.984375 -18.890625 L 20.984375 -109.109375 C 20.984375 -129.390625 22.992188 -146.085938 27.015625 -159.203125 C 31.035156 -172.316406 36.71875 -183.070312 44.0625 -191.46875 C 51.40625 -199.863281 60.144531 -206.507812 70.28125 -211.40625 C 80.425781 -216.300781 91.445312 -220.5 103.34375 -224 L 173.640625 -246.03125 C 179.234375 -247.425781 182.988281 -249.519531 184.90625 -252.3125 C 186.832031 -255.113281 187.796875 -259.3125 187.796875 -264.90625 C 187.796875 -270.15625 186.742188 -273.738281 184.640625 -275.65625 C 182.546875 -277.582031 178.878906 -278.546875 173.640625 -278.546875 L 59.796875 -278.546875 C 53.148438 -278.546875 48.34375 -280.03125 45.375 -283 C 42.40625 -285.976562 40.921875 -290.789062 40.921875 -297.4375 L 40.921875 -358.8125 C 40.921875 -365.457031 42.40625 -370.265625 45.375 -373.234375 C 48.34375 -376.210938 53.148438 -377.703125 59.796875 -377.703125 L 214.546875 -377.703125 C 244.273438 -377.703125 267.09375 -370.269531 283 -355.40625 C 298.914062 -340.539062 306.875 -318.941406 306.875 -290.609375 L 306.875 -241.3125 C 306.875 -215.082031 299.53125 -194.972656 284.84375 -180.984375 C 270.15625 -166.992188 250.222656 -156.148438 225.046875 -148.453125 L 153.703125 -125.90625 C 148.453125 -124.5 144.863281 -122.921875 142.9375 -121.171875 C 141.019531 -119.421875 140.0625 -115.75 140.0625 -110.15625 L 140.0625 -99.140625 L 289.5625 -99.140625 C 296.207031 -99.140625 301.015625 -97.65625 303.984375 -94.6875 C 306.960938 -91.71875 308.453125 -86.910156 308.453125 -80.265625 L 308.453125 -18.890625 C 308.453125 -12.242188 306.960938 -7.429688 303.984375 -4.453125 C 301.015625 -1.484375 296.207031 0 289.5625 0 Z M 289.5625 0 "/></g></g></g><g fill="#7843e6" fill-opacity="1"><g transform="translate(542.960427, 507.754442)"><g><path d="M 289.5625 0 L 39.875 0 C 33.226562 0 28.414062 -1.484375 25.4375 -4.453125 C 22.46875 -7.429688 20.984375 -12.242188 20.984375 -18.890625 L 20.984375 -109.109375 C 20.984375 -129.390625 22.992188 -146.085938 27.015625 -159.203125 C 31.035156 -172.316406 36.71875 -183.070312 44.0625 -191.46875 C 51.40625 -199.863281 60.144531 -206.507812 70.28125 -211.40625 C 80.425781 -216.300781 91.445312 -220.5 103.34375 -224 L 173.640625 -246.03125 C 179.234375 -247.425781 182.988281 -249.519531 184.90625 -252.3125 C 186.832031 -255.113281 187.796875 -259.3125 187.796875 -264.90625 C 187.796875 -270.15625 186.742188 -273.738281 184.640625 -275.65625 C 182.546875 -277.582031 178.878906 -278.546875 173.640625 -278.546875 L 59.796875 -278.546875 C 53.148438 -278.546875 48.34375 -280.03125 45.375 -283 C 42.40625 -285.976562 40.921875 -290.789062 40.921875 -297.4375 L 40.921875 -358.8125 C 40.921875 -365.457031 42.40625 -370.265625 45.375 -373.234375 C 48.34375 -376.210938 53.148438 -377.703125 59.796875 -377.703125 L 214.546875 -377.703125 C 244.273438 -377.703125 267.09375 -370.269531 283 -355.40625 C 298.914062 -340.539062 306.875 -318.941406 306.875 -290.609375 L 306.875 -241.3125 C 306.875 -215.082031 299.53125 -194.972656 284.84375 -180.984375 C 270.15625 -166.992188 250.222656 -156.148438 225.046875 -148.453125 L 153.703125 -125.90625 C 148.453125 -124.5 144.863281 -122.921875 142.9375 -121.171875 C 141.019531 -119.421875 140.0625 -115.75 140.0625 -110.15625 L 140.0625 -99.140625 L 289.5625 -99.140625 C 296.207031 -99.140625 301.015625 -97.65625 303.984375 -94.6875 C 306.960938 -91.71875 308.453125 -86.910156 308.453125 -80.265625 L 308.453125 -18.890625 C 308.453125 -12.242188 306.960938 -7.429688 303.984375 -4.453125 C 301.015625 -1.484375 296.207031 0 289.5625 0 Z M 289.5625 0 "/></g></g></g><g fill="#ff00ff" fill-opacity="1"><g transform="translate(406.35649, 446.891946)"><g><path d="M 246.566406 -234.824219 L 190.207031 -234.824219 C 183.75 -234.824219 177.878906 -232.476562 173.183594 -227.78125 L 86.296875 -140.894531 L 58.707031 -140.894531 L 58.707031 -234.824219 L 11.742188 -234.824219 L 11.742188 0 L 58.707031 0 L 58.707031 -93.929688 L 86.296875 -93.929688 L 173.183594 -7.042969 C 177.878906 -2.347656 183.75 0 190.207031 0 L 246.566406 0 L 246.566406 -46.964844 L 199.601562 -46.964844 L 129.152344 -117.414062 L 199.601562 -187.859375 L 246.566406 -187.859375 Z M 246.566406 -234.824219 "/></g></g></g><g fill="#00ffff" fill-opacity="1"><g transform="translate(442.108352, 455.14593)"><g><path d="M 246.566406 -234.824219 L 190.207031 -234.824219 C 183.75 -234.824219 177.878906 -232.476562 173.183594 -227.78125 L 86.296875 -140.894531 L 58.707031 -140.894531 L 58.707031 -234.824219 L 11.742188 -234.824219 L 11.742188 0 L 58.707031 0 L 58.707031 -93.929688 L 86.296875 -93.929688 L 173.183594 -7.042969 C 177.878906 -2.347656 183.75 0 190.207031 0 L 246.566406 0 L 246.566406 -46.964844 L 199.601562 -46.964844 L 129.152344 -117.414062 L 199.601562 -187.859375 L 246.566406 -187.859375 Z M 246.566406 -234.824219 "/></g></g></g><g fill="#ffffff" fill-opacity="1"><g transform="translate(424.232409, 451.018938)"><g><path d="M 246.566406 -234.824219 L 190.207031 -234.824219 C 183.75 -234.824219 177.878906 -232.476562 173.183594 -227.78125 L 86.296875 -140.894531 L 58.707031 -140.894531 L 58.707031 -234.824219 L 11.742188 -234.824219 L 11.742188 0 L 58.707031 0 L 58.707031 -93.929688 L 86.296875 -93.929688 L 173.183594 -7.042969 C 177.878906 -2.347656 183.75 0 190.207031 0 L 246.566406 0 L 246.566406 -46.964844 L 199.601562 -46.964844 L 129.152344 -117.414062 L 199.601562 -187.859375 L 246.566406 -187.859375 Z M 246.566406 -234.824219 "/></g></g></g><g fill="#ff00ff" fill-opacity="1"><g transform="translate(767.794768, 460.612083)"><g><path d="M 246.566406 -234.824219 L 58.707031 -234.824219 C 32.875 -234.824219 11.742188 -213.691406 11.742188 -187.859375 L 11.742188 0 L 58.707031 0 L 58.707031 -93.929688 L 246.566406 -93.929688 L 246.566406 -140.894531 L 58.707031 -140.894531 L 58.707031 -187.859375 L 246.566406 -187.859375 Z M 246.566406 -234.824219 "/></g></g></g><g clip-path="url(#37a6106df4)"><g fill="#00ffff" fill-opacity="1"><g transform="translate(803.546678, 468.866067)"><g><path d="M 246.566406 -234.824219 L 58.707031 -234.824219 C 32.875 -234.824219 11.742188 -213.691406 11.742188 -187.859375 L 11.742188 0 L 58.707031 0 L 58.707031 -93.929688 L 246.566406 -93.929688 L 246.566406 -140.894531 L 58.707031 -140.894531 L 58.707031 -187.859375 L 246.566406 -187.859375 Z M 246.566406 -234.824219 "/></g></g></g></g><g fill="#ffffff" fill-opacity="1"><g transform="translate(785.670735, 464.739075)"><g><path d="M 246.566406 -234.824219 L 58.707031 -234.824219 C 32.875 -234.824219 11.742188 -213.691406 11.742188 -187.859375 L 11.742188 0 L 58.707031 0 L 58.707031 -93.929688 L 246.566406 -93.929688 L 246.566406 -140.894531 L 58.707031 -140.894531 L 58.707031 -187.859375 L 246.566406 -187.859375 Z M 246.566406 -234.824219 "/></g></g></g></svg>